<?xml version="1.0"?>
<svg xmlns="http://www.w3.org/2000/svg" xmlns:xlink="http://www.w3.org/1999/xlink" xmlns:svgjs="http://svgjs.com/svgjs" version="1.1" width="512" height="512" x="0" y="0" viewBox="0 0 394.55232 394" style="enable-background:new 0 0 512 512" xml:space="preserve" class=""><circle r="197.27616" cx="197.27616" cy="197" fill="#f1c40f" shape="circle" transform="matrix(0.97,0,0,0.97,5.918284606933611,5.909999999999997)"/><g transform="matrix(0.7,0,0,0.7,59.18261733055115,51.753515625000006)"><path xmlns="http://www.w3.org/2000/svg" d="m32.769531 193.75c-.851562-4.429688-1.519531-8.921875-1.972656-13.480469.4375 4.5625 1.121094 9.050781 1.972656 13.480469zm0 0" fill="#dddddd" data-original="#dddddd" style="" class=""/><path xmlns="http://www.w3.org/2000/svg" d="m32.765625 200.574219c-3.207031 0-6.066406-2.269531-6.699219-5.535157-.953125-4.964843-1.632812-9.582031-2.066406-14.109374-.359375-3.746094 2.375-7.082032 6.121094-7.449219 3.910156-.402344 7.085937 2.367187 7.464844 6.105469.425781 4.257812 1.066406 8.589843 1.894531 12.871093.078125.4375.117187.875.117187 1.300781 0 3.207032-2.273437 6.066407-5.53125 6.695313-.441406.082031-.875.121094-1.300781.121094zm0 0" fill="#000000" data-original="#000000" style="" class=""/><path xmlns="http://www.w3.org/2000/svg" d="m359.675781 166.246094c-18.957031 11.429687-48.53125 32.664062-56.273437 57.824218-11.628906 37.796876-46.523438 52.335938-78.503906 46.519532 0 0-5 22.878906-24.847657 40.710937h42.625c80.105469 0 145.046875-64.941406 145.046875-145.050781h-28.046875zm0 0" fill="#dddddd" data-original="#dddddd" style="" class=""/><path xmlns="http://www.w3.org/2000/svg" d="m242.675781 318.121094h-42.621093c-2.828126 0-5.363282-1.742188-6.375-4.382813-1.011719-2.640625-.292969-5.632812 1.8125-7.519531 17.847656-16.039062 22.695312-36.894531 22.742187-37.105469.804687-3.574219 4.351563-5.875 7.886719-5.238281 27.292968 4.949219 59.753906-6.039062 70.75-41.8125 8.101562-26.3125 36.714844-48.054688 59.28125-61.660156 1.066406-.640625 2.285156-.980469 3.527344-.980469h28.046874c3.773438 0 6.824219 3.054687 6.824219 6.824219.003907 83.746094-68.128906 151.875-151.875 151.875zm-27.070312-13.652344h27.070312c73.925781 0 134.484375-58.339844 138.058594-131.394531h-19.140625c-17.003906 10.433593-44.699219 30.371093-51.664062 53.007812-12.558594 40.824219-49.140626 55.25-80.160157 52.085938-2.128906 6.164062-6.394531 16.160156-14.164062 26.300781zm0 0" fill="#000000" data-original="#000000" style="" class=""/><path xmlns="http://www.w3.org/2000/svg" d="m177.492188 269.203125s-106.75 8.789063-144.707032-75.367187c12.160156 63.105468 65.183594 111.554687 130.472656 116.859374-3.46875-.324218 16.992188-30.46875 14.234376-41.492187zm0 0" fill="#dddddd" data-original="#dddddd" style="" class=""/><path xmlns="http://www.w3.org/2000/svg" d="m163.257812 317.523438c-.183593 0-.371093-.007813-.558593-.023438-67.613281-5.496094-123.792969-55.816406-136.621094-122.367188-.652344-3.402343 1.339844-6.753906 4.648437-7.800781 3.265626-1.042969 6.855469.539063 8.28125 3.703125 35.566407 78.839844 136.886719 71.445313 137.925782 71.363282 3.246094-.316407 6.359375 1.902343 7.179687 5.148437 2.105469 8.398437-3.246093 20.167969-10.464843 34.679687-1.308594 2.625-2.867188 5.757813-3.628907 7.570313.066407.488281.082031.988281.035157 1.492187-.308594 3.554688-3.289063 6.234376-6.796876 6.234376zm-105.8125-78.933594c21.609376 34.996094 58.339844 59.453125 100.519532 64.703125.882812-1.976563 2.039062-4.304688 3.453125-7.148438 2.289062-4.597656 6.8125-13.6875 8.695312-19.902343-.089843 0-.175781 0-.261719 0-20.199218-.003907-73.484374-3.507813-112.40625-37.652344zm0 0" fill="#000000" data-original="#000000" style="" class=""/><path xmlns="http://www.w3.org/2000/svg" d="m175.136719 311.296875c-4.011719 0-7.953125-.28125-11.878907-.601563 3.914063.367188 7.867188.601563 11.878907.601563zm0 0" fill="#288eea" data-original="#288eea" style="" class=""/><path xmlns="http://www.w3.org/2000/svg" d="m175.132812 318.121094c-3.894531 0-7.988281-.207032-12.511718-.628906-3.742188-.347657-6.496094-3.648438-6.167969-7.390626.320313-3.742187 3.738281-6.503906 7.355469-6.210937 3.433594.28125 7.425781.578125 11.324218.578125 3.773438 0 6.828126 3.058594 6.828126 6.828125s-3.054688 6.824219-6.828126 6.824219zm0 0" fill="#000000" data-original="#000000" style="" class=""/><path xmlns="http://www.w3.org/2000/svg" d="m32.785156 193.835938c-.007812-.027344-.007812-.054688-.015625-.085938.007813.027344.007813.058594.015625.085938zm0 0" fill="#288eea" data-original="#288eea" style="" class=""/><path xmlns="http://www.w3.org/2000/svg" d="m32.78125 200.667969c-1.8125 0-3.535156-.730469-4.796875-1.976563 0 0-.003906-.003906-.003906-.003906 0-.003906-.007813-.007812-.007813-.007812 0-.003907.050782.03125-.015625-.015626-.84375-.84375-1.484375-1.925781-1.792969-3.171874-.140624-.542969-.21875-1.183594-.21875-1.742188 0-3.769531 3.050782-6.824219 6.824219-6.824219 3.441407 0 6.296875 2.546875 6.761719 5.863281.433594 2.777344-.886719 5.496094-3.226562 6.898438v.003906c-.007813 0-.007813 0-.007813.003906-.585937.351563-1.242187.621094-1.945313.785157-.523437.125-1.050781.1875-1.570312.1875zm0 0" fill="#000000" data-original="#000000" style="" class=""/><path xmlns="http://www.w3.org/2000/svg" d="m88.472656 157.191406c11.3125 8.054688 23.027344 9.054688 23.027344 9.054688s-11.714844-1-23.027344-9.054688zm0 0" fill="#288eea" data-original="#288eea" style="" class=""/><path xmlns="http://www.w3.org/2000/svg" d="m111.507812 173.074219c-.195312 0-.394531-.007813-.589843-.023438-.558594-.050781-13.71875-1.269531-26.40625-10.292969-1.867188-1.335937-2.867188-3.4375-2.867188-5.574218 0-1.367188.414063-2.746094 1.265625-3.949219 2.175782-3.070313 6.449219-3.796875 9.519532-1.605469 9.527343 6.78125 19.554687 7.808594 19.648437 7.8125 3.558594.308594 6.246094 3.292969 6.246094 6.796875 0 .195313-.007813.390625-.027344.589844-.296875 3.558594-3.28125 6.246094-6.789063 6.246094zm0 0" fill="#000000" data-original="#000000" style="" class=""/><path xmlns="http://www.w3.org/2000/svg" d="m30.796875 180.269531c-.445313-4.617187-.710937-9.289062-.710937-14.023437.003906 4.734375.25 9.414062.710937 14.023437zm0 0" fill="#288eea" data-original="#288eea" style="" class=""/><path xmlns="http://www.w3.org/2000/svg" d="m30.785156 187.101562c-3.464844 0-6.433594-2.632812-6.785156-6.152343-.488281-4.90625-.742188-9.835938-.742188-14.648438 0-.019531 0-.039062 0-.054687 0-3.769532 3.054688-6.828125 6.828126-6.828125 3.773437 0 6.824218 3.058593 6.824218 6.828125 0 4.226562.222656 8.601562.675782 13.378906.359374 3.746094-2.386719 7.078125-6.132813 7.441406-.21875.023438-.445313.035156-.667969.035156zm0 0" fill="#000000" data-original="#000000" style="" class=""/><path xmlns="http://www.w3.org/2000/svg" d="m166.746094 273.5c-50.691406 9.359375-105.304688 16.183594-139.4375-79.390625-1.519532-4.246094 0-81.917969 0-81.917969-14.539063-9.691406-20.480469-30.597656-20.480469-30.597656v-43.613281c49.429687 5.816406 46.519531 52.335937 46.519531 52.335937 0-49.429687 49.050782-52.335937 49.050782-52.335937v43.613281c-2.90625 20.355469-34.511719 34.894531-34.511719 34.894531 1.347656 21.558594 10.816406 33.75 20.585937 40.703125 11.3125 8.054688 23.027344 9.054688 23.027344 9.054688h248.179688c-18.960938 11.429687-48.535157 32.664062-56.273438 57.820312-11.632812 37.800782-46.523438 52.339844-78.507812 46.523438 0 0-13.269532 73.707031-81.535157 66.878906-.003906 0 26.140625-52.945312 23.382813-63.96875zm0 0" fill="#288eea" data-original="#288eea" style="" class=""/><path xmlns="http://www.w3.org/2000/svg" d="m152.179688 344.746094c-3.054688 0-6.214844-.15625-9.5-.484375-2.226563-.222657-4.207032-1.523438-5.292969-3.480469-1.082031-1.957031-1.140625-4.324219-.148438-6.335938 9.261719-18.765624 18.664063-41.050781 21.816407-52.613281-45.347657 7.957031-103.328126 12.140625-138.175782-85.425781-.472656-1.324219-1.890625-5.304688-.464844-80.828125-14.167968-11.523437-19.898437-31.226563-20.15625-32.113281-.1718745-.605469-.257812-1.238282-.257812-1.867188v-43.617187c0-1.953125.832031-3.804688 2.292969-5.101563 1.460937-1.300781 3.40625-1.898437 5.335937-1.679687 24.839844 2.925781 38.71875 15.597656 45.902344 29.390625 11.507812-21.054688 34.507812-28.59375 48.460938-29.421875 1.96875-.113281 3.730468.558593 5.085937 1.847656 1.375 1.289063 2.148437 3.085937 2.148437 4.964844v43.617187c0 .324219-.019531.648438-.066406.96875-2.734375 19.113282-24.328125 32.710938-34.039062 37.925782 1.753906 13.742187 7.558594 24.207031 17.3125 31.140624 9.527344 6.78125 19.554687 7.804688 19.648437 7.8125l247.601563-.023437c3.066406 0 5.75 2.042969 6.578125 4.996094.820312 2.953125-.425781 6.09375-3.054688 7.675781-16.8125 10.136719-46.085937 30.625-53.28125 53.988281-12.53125 40.714844-48.945312 55.160157-79.898437 52.117188-5.101563 17.792969-24.015625 66.546875-77.847656 66.546875zm14.574218-78.078125c3.074219 0 5.847656 2.089843 6.613282 5.175781 2.550781 10.21875-10.308594 40.105469-19.328126 59.210938 52.460938-1.457032 63.667969-59.089844 64.148438-61.6875.679688-3.707032 4.226562-6.140626 7.933594-5.496094 27.292968 4.949218 59.753906-6.039063 70.75-41.808594 5.929687-19.238281 22.808594-36.03125 40.28125-48.992188h-225.652344c-1.140625-.074218-14.300781-1.289062-26.984375-10.316406-14.089844-10.023437-22.195313-25.875-23.441406-45.84375-.171875-2.808594 1.398437-5.441406 3.953125-6.625 7.773437-3.59375 28.226562-15.78125 30.546875-29.21875v-35.089844c-11.792969 2.777344-33.902344 11.894532-35.328125 41.296876.015625 1.214843-.019532 2.371093-.085938 3.46875-.226562 3.679687-3.347656 6.648437-7.027344 6.394531-3.6875-.113281-6.613281-3.136719-6.613281-6.820313 0-.804687.015625-1.597656.035157-2.382812-.132813-7.582032-2.78125-34.445313-32.898438-41.816406v34.433593c1.21875 3.710938 6.71875 18.808594 17.4375 25.957031 1.941406 1.292969 3.089844 3.484376 3.042969 5.8125-.679688 34.832032-.988281 74.246094-.25 79.917969 33.265625 92.683594 85.496093 83.054688 131.621093 74.542969.417969-.074219.832032-.113281 1.246094-.113281zm0 0" fill="#000000" data-original="#000000" style="" class=""/><path xmlns="http://www.w3.org/2000/svg" d="m232.105469 92.78125c-3.773438 0-6.824219-3.054688-6.824219-6.824219v-7.273437c0-16.589844 13.1875-30.085938 29.394531-30.085938 16.203125 0 29.386719 13.496094 29.386719 30.085938v5.816406c0 3.773438-3.054688 6.828125-6.828125 6.828125s-6.828125-3.054687-6.828125-6.828125v-5.816406c0-9.058594-7.058594-16.429688-15.730469-16.429688-8.683593 0-15.742187 7.371094-15.742187 16.429688v7.273437c0 3.769531-3.054688 6.824219-6.828125 6.824219zm0 0" fill="#000000" data-original="#000000" style="" class=""/><path xmlns="http://www.w3.org/2000/svg" d="m232.105469 92.78125c-3.773438 0-6.824219-3.054688-6.824219-6.824219v-7.273437c0-9.058594-7.6875-16.429688-17.132812-16.429688-9.449219 0-17.128907 7.371094-17.128907 16.429688v5.816406c0 3.773438-3.050781 6.828125-6.824219 6.828125-3.773437 0-6.828124-3.054687-6.828124-6.828125v-5.816406c0-16.589844 13.808593-30.085938 30.78125-30.085938 16.972656 0 30.785156 13.496094 30.785156 30.085938v7.273437c0 3.769531-3.054688 6.824219-6.828125 6.824219zm0 0" fill="#000000" data-original="#000000" style="" class=""/><path xmlns="http://www.w3.org/2000/svg" d="m232.105469 31.878906c-3.773438 0-6.824219-3.054687-6.824219-6.824218v-4.273438c0-11.308594 9.011719-20.503906 20.089844-20.503906 11.082031 0 20.09375 9.195312 20.09375 20.503906v3.417969c0 3.769531-3.054688 6.828125-6.828125 6.828125-3.773438 0-6.824219-3.058594-6.824219-6.828125v-3.417969c0-3.777344-2.886719-6.851562-6.441406-6.851562-3.550782 0-6.4375 3.074218-6.4375 6.851562v4.273438c0 3.769531-3.054688 6.824218-6.828125 6.824218zm0 0" fill="#000000" data-original="#000000" style="" class=""/><path xmlns="http://www.w3.org/2000/svg" d="m232.105469 31.878906c-3.773438 0-6.824219-3.054687-6.824219-6.824218v-4.273438c0-3.777344-3.261719-6.851562-7.261719-6.851562s-7.261719 3.074218-7.261719 6.851562v3.417969c0 3.769531-3.050781 6.828125-6.824218 6.828125-3.773438 0-6.828125-3.058594-6.828125-6.828125v-3.417969c0-11.308594 9.378906-20.503906 20.914062-20.503906 11.535157 0 20.914063 9.195312 20.914063 20.503906v4.273438c0 3.769531-3.054688 6.824218-6.828125 6.824218zm0 0" fill="#000000" data-original="#000000" style="" class=""/><path xmlns="http://www.w3.org/2000/svg" d="m279.894531 200.9375c0 7.539062-6.113281 13.652344-13.65625 13.652344-7.539062 0-13.652343-6.113282-13.652343-13.652344" fill="#288eea" data-original="#288eea" style="" class=""/><path xmlns="http://www.w3.org/2000/svg" d="m266.238281 221.414062c-11.292969 0-20.476562-9.183593-20.476562-20.476562 0-3.773438 3.050781-6.828125 6.824219-6.828125 3.773437 0 6.828124 3.054687 6.828124 6.828125 0 3.761719 3.058594 6.824219 6.824219 6.824219 3.769531 0 6.828125-3.0625 6.828125-6.824219 0-3.773438 3.054688-6.828125 6.828125-6.828125 3.773438 0 6.824219 3.054687 6.824219 6.828125 0 11.292969-9.1875 20.476562-20.480469 20.476562zm0 0" fill="#000000" data-original="#000000" style="" class=""/><path xmlns="http://www.w3.org/2000/svg" d="m232.105469 153.148438c-3.773438 0-6.824219-3.054688-6.824219-6.824219v-133.976563c0-3.769531 3.050781-6.824218 6.824219-6.824218 3.773437 0 6.828125 3.054687 6.828125 6.824218v133.976563c0 3.769531-3.054688 6.824219-6.828125 6.824219zm0 0" fill="#000000" data-original="#000000" style="" class=""/></g></svg>
